<svg width="20" height="20" viewBox="0 0 20 20" fill="none" xmlns="http://www.w3.org/2000/svg">
<path d="M15.25 4.75833C15.0943 4.60228 14.8829 4.51459 14.6625 4.51459C14.442 4.51459 14.2307 4.60228 14.075 4.75833L9.99998 8.82499L5.92498 4.74999C5.76928 4.59395 5.55791 4.50626 5.33748 4.50626C5.11704 4.50626 4.90567 4.59395 4.74998 4.74999C4.42498 5.07499 4.42498 5.59999 4.74998 5.92499L8.82498 10L4.74998 14.075C4.42498 14.4 4.42498 14.925 4.74998 15.25C5.07498 15.575 5.59998 15.575 5.92498 15.25L9.99998 11.175L14.075 15.25C14.4 15.575 14.925 15.575 15.25 15.25C15.575 14.925 15.575 14.4 15.25 14.075L11.175 10L15.25 5.92499C15.5666 5.60833 15.5666 5.07499 15.25 4.75833Z" fill="black"/>
</svg>
