<svg width="26" height="26" viewBox="0 0 26 26" fill="none" xmlns="http://www.w3.org/2000/svg">
<g opacity="0.7">
<path fill-rule="evenodd" clip-rule="evenodd" d="M13.0004 5.70613C14.9071 3.47446 18.4387 2.56446 21.2987 4.51446C22.8154 5.55446 23.7687 7.30946 23.8337 9.15113C23.9746 13.3545 20.2587 16.7236 14.5712 21.8803L14.4521 21.9886C13.6287 22.747 12.3612 22.747 11.5379 21.9995L11.4296 21.902L11.3641 21.8425C5.7135 16.7086 2.01598 13.3492 2.16706 9.16196C2.23206 7.30946 3.18539 5.55446 4.70206 4.51446C7.56206 2.55363 11.0937 3.47446 13.0004 5.70613ZM13.0004 20.3961L13.1087 20.2878C18.2654 15.6186 21.6671 12.5311 21.6671 9.4003C21.6671 7.23363 20.0421 5.60863 17.8754 5.60863C16.2071 5.60863 14.5821 6.68113 14.0187 8.1653H11.9929C11.4187 6.68113 9.79373 5.60863 8.12539 5.60863C5.95873 5.60863 4.33373 7.23363 4.33373 9.4003C4.33373 12.5311 7.73539 15.6186 12.8921 20.2878L13.0004 20.3961Z" fill="white"/>
</g>
</svg>
