<svg width="26" height="26" viewBox="0 0 26 26" fill="none" xmlns="http://www.w3.org/2000/svg">
<g opacity="0.7">
<path fill-rule="evenodd" clip-rule="evenodd" d="M13.0003 5.70613C14.9069 3.47446 18.4386 2.56446 21.2986 4.51446C22.8153 5.55446 23.7686 7.30946 23.8336 9.15113C23.9744 13.3545 20.2586 16.7236 14.5711 21.8803L14.4519 21.9886C13.6286 22.747 12.3611 22.747 11.5378 21.9995L11.4294 21.902L11.364 21.8425C5.71338 16.7086 2.01585 13.3492 2.16694 9.16196C2.23194 7.30946 3.18527 5.55446 4.70194 4.51446C7.56194 2.55363 11.0936 3.47446 13.0003 5.70613ZM13.0003 20.3961L13.1086 20.2878C18.2653 15.6186 21.6669 12.5311 21.6669 9.4003C21.6669 7.23363 20.0419 5.60863 17.8753 5.60863C16.2069 5.60863 14.5819 6.68113 14.0186 8.1653H11.9928C11.4186 6.68113 9.7936 5.60863 8.12527 5.60863C5.9586 5.60863 4.33361 7.23363 4.33361 9.4003C4.33361 12.5311 7.73527 15.6186 12.8919 20.2878L13.0003 20.3961Z" fill="white"/>
</g>
</svg>
