<svg width="45" height="45" viewBox="0 0 45 45" fill="none" xmlns="http://www.w3.org/2000/svg">
<circle cx="22" cy="22" r="22" fill="#B359FA"/>
<path fill-rule="evenodd" clip-rule="evenodd" d="M28.8432 14.8308L32.0866 18.0858C32.3082 18.3075 32.3082 18.6808 32.0749 18.9025L28.8316 22.1575C28.4699 22.5308 27.8399 22.2742 27.8399 21.7492V19.6608H20.8282C20.1866 19.6608 19.6616 19.1358 19.6616 18.4942C19.6616 17.8525 20.1866 17.3275 20.8282 17.3275H27.8516V15.2392C27.8516 14.7258 28.4816 14.4575 28.8432 14.8308ZM11.9149 25.0858L15.1582 21.8308C15.5199 21.4575 16.1499 21.7142 16.1499 22.2392V24.3275H23.1616C23.8032 24.3275 24.3282 24.8525 24.3282 25.4942C24.3282 26.1358 23.8032 26.6608 23.1616 26.6608H16.1499V28.7608C16.1499 29.2742 15.5199 29.5425 15.1582 29.1692L11.9149 25.9142C11.6932 25.6808 11.6932 25.3192 11.9149 25.0858Z" fill="black"/>
</svg>
