<svg width="348" height="365" viewBox="0 0 348 365" fill="none" xmlns="http://www.w3.org/2000/svg">
<rect width="347" height="365" rx="18" fill="#1F1F1F"/>
<path d="M1 224.5L9.03483 195.754L17.5718 271.364L28.6197 30.5138L37.1567 165.71L59.7547 195.754L69.7983 158.7L112.483 294.397L123.531 195.754L144.12 85.5939L164.71 21L176.762 185.239L186.303 165.71L198.858 225.297L223.464 139.172L245.058 107.125L268.66 117.14L293.267 165.71L322.393 244.825L346.5 92" stroke="#B359FA" stroke-width="2" stroke-linecap="round"/>
<path d="M8.05806 195.246L0 224.703V364H347V91.8967L322.322 244.175L293.112 165.29L268.434 117.36L244.763 107.374L223.107 138.828L198.43 224.703L185.839 165.29L176.27 184.761L164.183 21L143.534 85.4061L122.885 195.246L111.806 294.102L68.9971 158.3L58.9245 195.246L36.2612 165.29L27.6996 30.4862L16.6197 270.636L8.05806 195.246Z" fill="url(#paint0_linear_1713_105)"/>
<defs>
<linearGradient id="paint0_linear_1713_105" x1="168.212" y1="40.4716" x2="166.232" y2="356.012" gradientUnits="userSpaceOnUse">
<stop stop-color="#B359FA"/>
<stop offset="1" stop-color="#B359FA" stop-opacity="0"/>
</linearGradient>
</defs>
</svg>
