<svg width="16" height="16" viewBox="0 0 16 16" fill="none" xmlns="http://www.w3.org/2000/svg">
<path fill-rule="evenodd" clip-rule="evenodd" d="M8.00002 0.416656C8.83419 0.416656 9.51669 1.09916 9.51669 1.93332V14.0667C9.51669 14.9008 8.83419 15.5833 8.00002 15.5833C7.16585 15.5833 6.48335 14.9008 6.48335 14.0667V1.93332C6.48335 1.09916 7.16585 0.416656 8.00002 0.416656ZM1.93335 4.96666H2.15002C2.98419 4.96666 3.66669 5.64916 3.66669 6.48332V14.0667C3.66669 14.9008 2.98419 15.5833 2.15002 15.5833H1.93335C1.09919 15.5833 0.416687 14.9008 0.416687 14.0667V6.48332C0.416687 5.64916 1.09919 4.96666 1.93335 4.96666ZM15.5834 10.6C15.5834 9.76582 14.9009 9.08332 14.0667 9.08332C13.2325 9.08332 12.55 9.76582 12.55 10.6V14.0667C12.55 14.9008 13.2325 15.5833 14.0667 15.5833C14.9009 15.5833 15.5834 14.9008 15.5834 14.0667V10.6Z" fill="white"/>
</svg>
