<svg width="26" height="26" viewBox="0 0 26 26" fill="none" xmlns="http://www.w3.org/2000/svg">
<path d="M21.4405 11.9112H7.17301L10.293 8.79123C10.7155 8.36873 10.7155 7.68623 10.293 7.26373C10.0906 7.06087 9.81582 6.94687 9.52926 6.94687C9.2427 6.94687 8.96791 7.06087 8.76551 7.26373L3.79301 12.2362C3.37051 12.6587 3.37051 13.3412 3.79301 13.7637L8.76551 18.7362C9.18801 19.1587 9.87051 19.1587 10.293 18.7362C10.7155 18.3137 10.7155 17.6312 10.293 17.2087L7.17301 14.0779H21.4405C22.0363 14.0779 22.5238 13.5904 22.5238 12.9946C22.5238 12.3987 22.0363 11.9112 21.4405 11.9112Z" fill="#B359FA"/>
</svg>
