<svg width="26" height="26" viewBox="0 0 26 26" fill="none" xmlns="http://www.w3.org/2000/svg">
<path d="M21.4406 11.9112H7.17307L10.2931 8.79123C10.7156 8.36873 10.7156 7.68623 10.2931 7.26373C10.0907 7.06087 9.81588 6.94687 9.52932 6.94687C9.24276 6.94687 8.96797 7.06087 8.76557 7.26373L3.79307 12.2362C3.37057 12.6587 3.37057 13.3412 3.79307 13.7637L8.76557 18.7362C9.18807 19.1587 9.87057 19.1587 10.2931 18.7362C10.7156 18.3137 10.7156 17.6312 10.2931 17.2087L7.17307 14.0779H21.4406C22.0364 14.0779 22.5239 13.5904 22.5239 12.9946C22.5239 12.3987 22.0364 11.9112 21.4406 11.9112Z" fill="#B359FA"/>
</svg>
