<svg width="26" height="26" viewBox="0 0 26 26" fill="none" xmlns="http://www.w3.org/2000/svg">
<g opacity="0.5">
<path fill-rule="evenodd" clip-rule="evenodd" d="M12.0066 22.555C12.0066 23.2483 11.3674 23.7683 10.6957 23.6167C5.85323 22.5333 2.25656 18.1892 2.25656 13C2.25656 7.81082 5.85323 3.46666 10.6957 2.38332C11.3674 2.23166 12.0066 2.75166 12.0066 3.44499V22.555ZM14.2057 3.44499V10.8225C14.2057 11.4183 14.6932 11.9058 15.2891 11.9058H22.6449C23.3382 11.9058 23.8582 11.2667 23.7066 10.5842C22.7857 6.51082 19.5899 3.30416 15.5274 2.38332C14.8449 2.23166 14.2057 2.75166 14.2057 3.44499ZM14.2057 22.555V15.1775C14.2057 14.5817 14.6932 14.0942 15.2999 14.0833H22.6557C23.3382 14.0833 23.8691 14.7333 23.7174 15.405C22.7966 19.4783 19.6007 22.6958 15.5274 23.6167C14.8449 23.7683 14.2057 23.2483 14.2057 22.555Z" fill="white"/>
</g>
</svg>
