<svg width="26" height="26" viewBox="0 0 26 26" fill="none" xmlns="http://www.w3.org/2000/svg">
<g opacity="0.5">
<path fill-rule="evenodd" clip-rule="evenodd" d="M21.1274 13C21.1274 13.3683 21.0949 13.715 21.0516 14.0617L23.3374 15.8492C23.5432 16.0117 23.5974 16.3042 23.4674 16.5425L21.3007 20.2908C21.1707 20.5292 20.8891 20.6267 20.6399 20.5292L17.9424 19.4458C17.3791 19.8683 16.7724 20.2367 16.1116 20.5075L15.6999 23.3783C15.6674 23.6383 15.4399 23.8333 15.1691 23.8333H10.8357C10.5649 23.8333 10.3374 23.6383 10.3049 23.3783L9.89322 20.5075C9.23239 20.2367 8.62572 19.8792 8.06239 19.4458L5.36489 20.5292C5.12656 20.6158 4.83406 20.5292 4.70406 20.2908L2.53739 16.5425C2.40739 16.3042 2.46156 16.0117 2.66739 15.8492L4.95322 14.0617C4.90989 13.715 4.87739 13.3575 4.87739 13C4.87739 12.6425 4.90989 12.285 4.95322 11.9383L2.66739 10.1508C2.46156 9.98832 2.39656 9.69582 2.53739 9.45749L4.70406 5.70916C4.83406 5.47082 5.11572 5.37332 5.36489 5.47082L8.06239 6.55416C8.62572 6.13166 9.23239 5.76332 9.89322 5.49249L10.3049 2.62166C10.3374 2.36166 10.5649 2.16666 10.8357 2.16666H15.1691C15.4399 2.16666 15.6674 2.36166 15.6999 2.62166L16.1116 5.49249C16.7724 5.76332 17.3791 6.12082 17.9424 6.55416L20.6399 5.47082C20.8782 5.38416 21.1707 5.47082 21.3007 5.70916L23.4674 9.45749C23.5974 9.69582 23.5432 9.98832 23.3374 10.1508L21.0516 11.9383C21.0949 12.285 21.1274 12.6317 21.1274 13ZM9.21072 13C9.21072 15.0908 10.9116 16.7917 13.0024 16.7917C15.0932 16.7917 16.7941 15.0908 16.7941 13C16.7941 10.9092 15.0932 9.20832 13.0024 9.20832C10.9116 9.20832 9.21072 10.9092 9.21072 13Z" fill="white"/>
</g>
</svg>
