<svg width="114" height="15" viewBox="0 0 114 15" fill="none" xmlns="http://www.w3.org/2000/svg">
<path d="M1 5.57003C2.91781 8.53892 7.2137 13.586 9.0548 10.0234C11.3562 5.57003 13.6575 2.10631 16.3425 1.11668C18.4904 0.324981 22.0959 3.75571 23.6301 5.57003C23.6301 5.57003 31.6849 13.9655 33.2192 13.9819C34.7534 13.9982 38.0521 10.0234 42.0411 10.0234C47.0274 10.0234 50.863 10.0234 53.1644 5.57003C55.4658 1.11668 61.6027 1.11668 63.9041 1.11668C65.7452 1.11668 77.2323 9.48816 77.2323 9.48816C77.2323 9.48816 84.7699 13.9819 86.9178 13.9819C89.6027 13.9819 91.8893 14.4616 94.5742 10.4868C99.271 3.53352 101.077 1.9986 108.303 6.49234L113 10.0234" stroke="url(#paint0_linear_14_293)" stroke-width="1.5" stroke-linecap="round"/>
<defs>
<linearGradient id="paint0_linear_14_293" x1="108.081" y1="7.99994" x2="-14.5135" y2="7.99995" gradientUnits="userSpaceOnUse">
<stop stop-color="#FF007A"/>
<stop offset="1" stop-color="#FF007A" stop-opacity="0"/>
</linearGradient>
</defs>
</svg>
