<svg width="110" height="16" viewBox="0 0 110 16" fill="none" xmlns="http://www.w3.org/2000/svg">
<path d="M1 9.92997C2.84931 6.96108 6.99178 1.91398 8.76712 5.47664C10.9863 9.92997 13.2055 13.3937 15.7945 14.3833C17.8658 15.175 21.3425 11.7443 22.8219 9.92997C22.8219 9.92997 30.589 1.5345 32.0685 1.51814C33.5479 1.50178 36.7288 5.47664 40.5753 5.47664C45.3836 5.47664 49.0822 5.47662 51.3014 9.92997C53.5205 14.3833 59.4384 14.3833 61.6575 14.3833C63.4329 14.3833 74.5097 6.01184 74.5097 6.01184C74.5097 6.01184 81.7781 1.51814 83.8493 1.51814C86.4384 1.51814 88.6432 1.03838 91.2323 5.01323C95.7613 11.9665 97.5032 13.5014 104.471 9.00766L109 5.47664" stroke="url(#paint0_linear_14_246)" stroke-width="1.5" stroke-linecap="round"/>
<defs>
<linearGradient id="paint0_linear_14_246" x1="104.257" y1="7.5" x2="-21.6236" y2="8.03251" gradientUnits="userSpaceOnUse">
<stop stop-color="#195BF9"/>
<stop offset="1" stop-color="#0033AD" stop-opacity="0"/>
</linearGradient>
</defs>
</svg>
